<?xml version="1.0" encoding="UTF-8" standalone="no"?>
<!-- Created with Inkscape (http://www.inkscape.org/) -->

<svg
   width="48"
   height="48"
   viewBox="0 0 12.7 12.7"
   version="1.1"
   id="svg1"
   inkscape:version="1.3.2 (091e20e, 2023-11-25, custom)"
   sodipodi:docname="favicon-ultrarrevisa.svg"
   xmlns:inkscape="http://www.inkscape.org/namespaces/inkscape"
   xmlns:sodipodi="http://sodipodi.sourceforge.net/DTD/sodipodi-0.dtd"
   xmlns="http://www.w3.org/2000/svg"
   xmlns:svg="http://www.w3.org/2000/svg">
  <sodipodi:namedview
     id="namedview1"
     pagecolor="#ffffff"
     bordercolor="#eeeeee"
     borderopacity="1"
     inkscape:showpageshadow="0"
     inkscape:pageopacity="0"
     inkscape:pagecheckerboard="0"
     inkscape:deskcolor="#505050"
     inkscape:document-units="mm"
     showborder="false"
     inkscape:zoom="8"
     inkscape:cx="3.5625"
     inkscape:cy="24.9375"
     inkscape:window-width="1920"
     inkscape:window-height="991"
     inkscape:window-x="-9"
     inkscape:window-y="-9"
     inkscape:window-maximized="1"
     inkscape:current-layer="layer1" />
  <defs
     id="defs1" />
  <g
     inkscape:label="Camada 1"
     inkscape:groupmode="layer"
     id="layer1">
    <g
       id="g20"
       style="fill:#170920;fill-opacity:1">
      <path
         style="fill:#170920;fill-opacity:1;stroke-width:0.2"
         d="m 3.7417904,10.950286 c 0.017534,0.0098 0.0384,0.01526 0.052601,0.02948 0.041078,0.04114 0.070497,0.09284 0.111084,0.13447 0.080261,0.08232 0.2132171,0.178029 0.3215587,0.222168 0.020577,0.0084 0.043232,0.01051 0.064312,0.01754 0.02536,0.0085 0.050334,0.02282 0.076005,0.02923 0.011345,0.0028 0.023386,0 0.035079,0 0.045026,0 0.1074708,-0.0074 0.1520097,0 0.0043,7.15e-4 0.00742,0.005 0.011692,0.0058 0.00573,0.0011 0.011806,-0.0011 0.017539,0 0.010821,-0.0043 0.010724,0.01 0.017539,0.01169 0.00567,0.0014 0.011774,-9.53e-4 0.017539,0 0.017828,0.003 0.034677,0.01555 0.052619,0.01754 0.011621,0.0013 0.023458,-0.0013 0.035079,0 0.017423,0.0019 0.035231,0.0092 0.052619,0.01169 0.020505,0.0029 0.044219,8.2e-4 0.064312,0.0058 0.010181,0.0025 0.01905,0.0091 0.029232,0.01169 0.00567,0.0014 0.011692,0 0.017539,0 0.00585,0.002 0.011692,0.0039 0.017539,0.0058 0.00827,0.0028 0.01493,0.0096 0.023386,0.01169 0.00567,0.0014 0.011994,-0.0019 0.017539,0 0.00667,0.0022 0.011515,0.0081 0.017539,0.01169 0.013936,0.0084 0.031267,0.01311 0.046772,0.01754 0.036839,0.01052 0.018912,0.0032 0.070158,0.01169 0.087184,0.01453 -0.028582,-0.0022 0.040926,0.01169 0.027857,0.0056 0.059545,-0.0031 0.087698,0 0.038789,0.0043 0.017626,0.0044 0.046772,0.01169 0.00897,0.0022 0.020476,-0.0029 0.029232,0 0.032154,0.01072 0.1085686,0.03286 0.1403165,0.01169 0.00161,-0.0011 -0.00138,-0.0045 0,-0.0058 0.00292,-0.0029 0.014616,0.0029 0.017539,0 0.00138,-0.0014 -8.731e-4,-0.0041 0,-0.0058 0.0107,-0.0214 0.011692,-0.02481 0.011692,-0.05262 0,-0.0427 -0.00655,-0.102509 -0.029233,-0.140316 -0.00135,-0.0022 -0.013941,-0.01349 -0.017539,-0.01754 -0.013764,-0.01548 -0.027909,-0.03066 -0.040926,-0.04677 -0.034045,-0.04215 -0.064703,-0.087 -0.099391,-0.128624 -0.018124,-0.02175 -0.02372,-0.02108 -0.040926,-0.05262 -0.062733,-0.115011 -0.023588,-0.08912 -0.1403165,-0.175395 -0.03422,-0.02529 -0.084441,-0.02495 -0.1227767,-0.04093 -0.016089,-0.0067 -0.031748,-0.01455 -0.046772,-0.02339 -0.075502,-0.04441 -0.1370502,-0.11446 -0.2163212,-0.15201 -0.034166,-0.01618 -0.1012373,-0.04176 -0.1403165,-0.05262 -0.023228,-0.0064 -0.047289,-0.0099 -0.070158,-0.01754 -0.065708,-0.0219 -0.126071,-0.06275 -0.1929349,-0.08185 -0.01325,-0.0038 -0.027368,-0.0034 -0.040926,-0.0058 -0.033047,-0.006 -0.015481,-0.0071 -0.052619,-0.01169 -0.056035,-0.007 -0.1322846,0.0041 -0.181242,0.0058 -0.069496,0.0025 -0.1327684,-0.0014 -0.1987817,0.02339 -0.011541,0.0043 -0.025051,0.0045 -0.035079,0.01169 -0.00897,0.0064 -0.014684,0.01662 -0.023386,0.02339 -0.00897,0.007 -0.020606,0.01014 -0.029233,0.01754 -0.00533,0.0046 -0.00636,0.01297 -0.011692,0.01754 -0.00863,0.0074 -0.020503,0.01027 -0.029232,0.01754 -0.0043,0.0036 -0.027009,0.03648 -0.029233,0.04093 -0.019865,0.03973 -0.00779,0.07211 0,0.111083 3.968e-4,0.002 -0.00246,0.02433 0,0.02923 0.00611,0.01221 0.038228,0.05127 0.052619,0.05846 0.00719,0.0036 0.016201,0.0022 0.023386,0.0058 0.00175,8.73e-4 -0.00175,0.005 0,0.0058 0.00349,0.0017 0.00821,-0.0017 0.011695,0 0.00175,8.73e-4 -0.00138,0.0045 0,0.0058 0.00138,0.0014 0.00447,-0.0014 0.00585,0 0.00138,0.0014 -0.00138,0.0045 0,0.0058 0.00138,0.0014 0.0039,0 0.00585,0 -0.00193,0.01356 -0.00389,0.02712 -0.00583,0.04068"
         id="path20" />
      <path
         style="fill:#170920;fill-opacity:1;stroke-width:0.2"
         d="M 3.4395833,2.1497396 C 3.4206545,2.0141139 3.3354581,1.9111055 3.2907552,1.7859375 3.2772582,1.7481462 3.2725857,1.7074412 3.2576823,1.6701823 3.2386942,1.6227123 3.1857468,1.5650074 3.1584635,1.5213541 c -0.017035,-0.027256 -0.035235,-0.053934 -0.049609,-0.082682 -0.00246,-0.00493 0.0039,-0.012639 0,-0.016536 -0.00872,-0.00872 -0.024357,-0.00782 -0.033073,-0.016536 -0.0039,-0.0039 0.0039,-0.012639 0,-0.016536 -0.027525,-0.027525 -0.083781,-0.058702 -0.1157552,-0.082682 -0.06472,-0.04854 -0.1077195,-0.00835 -0.181901,-0.033073 -0.044889,-0.014963 -0.084825,-0.021206 -0.1322917,-0.033073 -0.030613,-0.00765 -0.143353,0.022011 -0.1653646,0 -0.0039,-0.0039 0.0039,-0.012639 0,-0.016537 -0.0064,-0.0064 -0.2590474,-0.016536 -0.2976562,-0.016536 -0.033146,0 -0.3250981,-0.00563 -0.3307292,0 -0.0039,0.0039 0.0039,0.012639 0,0.016536 -0.0078,0.0078 -0.023212,-0.00493 -0.033073,0 -0.00697,0.00349 -0.00956,0.01305 -0.016536,0.016537 -0.00493,0.00247 -0.012639,-0.0039 -0.016536,0 -0.00827,0.00827 -0.00827,0.024805 -0.016536,0.033073 -0.0039,0.0039 -0.012639,-0.0039 -0.016536,0 -0.00827,0.00827 0.00827,0.041341 0,0.049609 -0.0039,0.0039 -0.012639,-0.0039 -0.016537,0 -0.014772,0.014772 0.00702,0.089703 0.016537,0.099219 0.0039,0.0039 0.012639,-0.0039 0.016536,0 0.00856,0.00856 0.00798,0.057587 0.016536,0.066146 0.0039,0.0039 0.011606,-0.00247 0.016536,0 0.068821,0.03441 -0.017678,-0.00114 0.016536,0.033073 0.00104,0.00104 0.074833,0.045685 0.082682,0.049609 0.028465,0.014233 0.1106231,-0.021669 0.1322916,0 0.0039,0.0039 -0.00247,0.011606 0,0.016536 0.00992,0.019844 0.039687,0.029766 0.049609,0.049609 0.00501,0.010022 0.00961,0.04268 0.016536,0.049609 0.0039,0.0039 0.012639,-0.0039 0.016536,0 0.0039,0.0039 9.393e-4,0.011105 0,0.016537 -0.013394,0.077473 -0.028638,0.1546149 -0.042957,0.2319224"
         id="path12" />
      <path
         style="fill:#170920;fill-opacity:1;stroke-width:0.2"
         d="m 2.3017554,1.9016927 c -0.068092,0.064962 -0.087538,0.041316 -0.052797,0.099219 0.020311,0.033852 0.054245,0.080052 0.066146,0.1157552 0.00349,0.010459 -0.00409,0.022837 0,0.033073 0.00738,0.018453 0.025692,0.031156 0.033073,0.049609 0.012573,0.031434 0.012515,0.330278 0,0.3803386 -0.00501,0.02003 -0.023532,0.047063 -0.033073,0.066146 -0.00499,0.00999 0.00764,0.041965 0,0.049609 -0.0039,0.0039 -0.014071,-0.00493 -0.016536,0 -0.011512,0.023024 -0.01017,0.1780968 0,0.1984375 0.00349,0.00697 0.01305,0.00956 0.016536,0.016536 0.00949,0.018976 0.010105,0.4988505 0,0.5291667 -0.058836,0.1765067 -0.031258,0.3456495 -0.049609,0.5291667 -0.0056,0.05598 -0.039973,0.4209647 -0.016536,0.4795572 0.018058,0.045144 0.04547,0.090939 0.066146,0.1322917 0.00653,0.01306 -0.00465,0.035664 0,0.049609 0.00336,0.010091 0.029709,0.039518 0.033073,0.049609 0.00349,0.010459 -0.00493,0.023212 0,0.033073 0.00247,0.00493 0.014071,-0.00493 0.016536,0 0.00986,0.019722 0,0.044097 0,0.066146 0,0.061574 -1.699e-4,0.1323766 -0.066146,0.1653646 -0.00493,0.00246 -0.012639,-0.0039 -0.016536,0 -0.0078,0.00779 0.0078,0.025278 0,0.033073 -0.0039,0.0039 -0.012639,-0.0039 -0.016536,0 -0.015362,0.015362 0.010186,0.1628489 0.016536,0.181901 0.00697,0.020907 0.00739,0.1066112 0.016536,0.1157552 0.0039,0.0039 0.011606,-0.00246 0.016536,0 0.013945,0.00697 0.019128,0.026101 0.033073,0.033073 0.047203,0.023601 0.2653716,-0.016931 0.2976562,-0.033073 0.013943,-0.00697 0.019129,-0.026101 0.033073,-0.033073 0.013229,-0.00661 0.03638,0.00661 0.049609,0 0.04135,-0.020674 0.1010113,-0.037655 0.1488281,-0.049609 0.010695,-0.00267 0.0239,0.00611 0.033073,0 0.010255,-0.00684 0.00782,-0.024358 0.016536,-0.033073 0.0039,-0.0039 0.011025,0 0.016536,0 0.011025,-0.00551 0.024358,-0.00782 0.033073,-0.016536 0.0039,-0.0039 -0.00493,-0.014071 0,-0.016536 0.00986,-0.00493 0.023619,0.00567 0.033073,0 0.1280488,-0.076829 0.00241,-0.018939 0.066146,-0.082682 0.0039,-0.0039 0.012639,0.0039 0.016536,0 C 3.1615657,4.9743717 3.2031302,4.6695508 3.175,4.5640624 3.1168146,4.3458677 3.0311087,4.1323889 2.960026,3.9191406 c -0.00956,-0.028682 0.00818,-0.070575 0,-0.099219 -0.00677,-0.023701 -0.0263,-0.042443 -0.033073,-0.066146 -0.00454,-0.015901 0.00233,-0.033239 0,-0.049609 C 2.9158803,3.6266508 2.8884737,3.550567 2.8773437,3.4726562 2.8633869,3.3749506 2.8583493,3.2735554 2.8442708,3.175 c -0.02635,-0.1844482 0.02644,-0.3604416 0.082682,-0.5291667 0.00827,-0.024805 -0.00827,-0.057878 0,-0.082682 -0.00997,-0.02993 0.026788,-0.030755 0.033073,-0.049609 0.00523,-0.015688 -0.011692,-0.037916 0,-0.049609 0.01284,-0.01284 0.045042,0.057011 0.049609,0.066146 0.014256,0.028513 0.058736,0.3067825 0.066146,0.3141927 0.0039,0.0039 0.012639,-0.0039 0.016536,0 0.00584,0.00584 0.016536,0.1084673 0.016536,0.082682 0,-0.022048 -0.00243,-0.044232 0,-0.066146 0.016536,-0.1267796 0.033073,-0.2535591 0.049609,-0.3803386 0.00551,-0.016536 0.014071,-0.032354 0.016536,-0.049609 0.00837,-0.058581 -0.011618,-0.1238112 0,-0.181901 0.024474,-0.1223695 0.024681,-0.256936 0,-0.3803385 -7.851e-4,-0.00392 -0.032174,-0.1479297 -0.033073,-0.1488282 -0.00823,-0.00823 -0.087989,-0.014495 -0.099219,-0.016536 -0.053877,-0.0098 -0.1798913,-0.072328 -0.2480469,-0.049609 -0.051056,0.017019 -0.1047861,0.053321 -0.1488281,0.082682 -0.012972,0.00865 -0.019128,0.026101 -0.033073,0.033073 -0.00986,0.00493 -0.025278,-0.0078 -0.033073,0 -0.0039,0.0039 0.00247,0.011606 0,0.016536 -0.00618,0.012357 -0.05245,0.040479 -0.066146,0.049609 -0.022441,0.014961 -0.045854,0.022927 -0.066146,0.033073 -0.070556,0.035278 0.037483,-0.0022 -0.033073,0.033073 -0.00986,0.00493 -0.025278,-0.0078 -0.033073,0 -0.0039,0.0039 0.00551,0.016536 0,0.016536 -0.027065,0 -0.052996,-0.011024 -0.079495,-0.016536"
         id="path13" />
      <path
         style="fill:#170920;fill-opacity:1;stroke-width:0.2"
         d="m 2.9038248,2.5822257 c -0.020804,0.00649 -0.075593,0.00212 -0.062416,0.019476 0.020881,0.027506 0.066107,0.020027 0.099391,0.029233 0.1726805,0.047763 0.1597908,0.029222 0.2689399,0.111084 0.00562,0.00421 0.01257,0.00673 0.017539,0.011692 0.0083,0.0083 0.00554,0.046128 0.00585,0.058465 0.00175,0.070163 0.00222,0.1403832 0.00585,0.2104747 0.00482,0.093109 0.023394,0.1869528 0.017539,0.280633 -6.086e-4,0.00992 -0.00502,0.01933 -0.00585,0.029233 -0.00114,0.013594 0.00146,0.027361 0,0.040925 -0.021894,0.204334 -0.016145,0.041305 -0.029232,0.257247 -0.00536,0.088506 0.014758,0.1906246 -0.035079,0.2689399 -0.00592,0.0093 -0.016063,0.015147 -0.023386,0.023387 -0.03601,0.040512 -0.015232,0.040926 -0.093544,0.040926 -0.077852,0 -0.1017659,-0.018412 -0.1695493,-0.058465 -0.034913,-0.02063 -0.068601,-0.043767 -0.099391,-0.070158 -0.00947,-0.00812 -0.015806,-0.01932 -0.023386,-0.029232 -0.01776,-0.023222 -0.039819,-0.04388 -0.052622,-0.07016 C 2.6528749,3.5889506 2.6376619,3.4404342 2.6017018,3.2798983 2.5693578,3.1355056 2.536348,2.9912585 2.5023109,2.8472556 2.4856761,2.7768775 2.4656618,2.7073132 2.4496922,2.6367809 c -0.00265,-0.011721 -0.036944,-0.159041 -0.023386,-0.1929352 0.00436,-0.010902 0.024066,-0.035419 0.035079,-0.040926 0.045582,-0.022791 0.081475,0.027685 0.1110839,0.052619 0.024449,0.020589 0.048827,0.041641 0.076005,0.058465 0.014158,0.00876 0.031312,0.011356 0.046772,0.01754 0.016796,0.00672 0.00583,0.00585 0.017539,0.00585 0.00196,0 0.00779,0 0.00585,0 -0.00196,0 -0.00392,0 -0.00588,0"
         id="path14" />
      <path
         style="fill:#170920;fill-opacity:1;stroke-width:0.2"
         d="m 2.3269153,6.348024 c -0.00195,-0.091163 -0.0029,-0.1823527 -0.00585,-0.2734889 -0.017272,-0.5341604 -0.00844,0.00308 -0.017539,-0.5612659 -8.996e-4,-0.055763 4.313e-4,-0.1037135 0.00585,-0.157856 0.00233,-0.023315 -0.00575,-0.052988 0,-0.076005 0.00619,-0.024765 0.081787,-0.1151057 0.099391,-0.13447 0.020802,-0.022881 0.045332,-0.051538 0.070158,-0.070158 0.017146,-0.012859 0.040651,-0.018545 0.058465,-0.029232 0.00473,-0.00284 0.00663,-0.00952 0.011693,-0.011692 0.02351,-0.010075 0.056969,-0.011319 0.081851,-0.017539 0.021144,-0.00529 0.09494,-0.028535 0.1169304,-0.017539 0.035544,0.017772 0.069811,0.023386 0.1110838,0.023386 0.014377,0 0.1525981,-0.00116 0.1578562,0.00585 0.013308,0.017746 0.026657,0.070689 0.029232,0.081851 0.099697,0.4320191 -0.019606,-0.064875 0.058465,0.3098657 0.00983,0.047198 0.020788,0.094271 0.035079,0.1403165 0.013541,0.022566 0.022,0.033148 0.029232,0.058465 0.013695,0.047936 0.018097,0.097914 0.029233,0.1461632 0.00277,0.01201 0.00967,0.022921 0.011692,0.035079 0.00193,0.011533 -6.615e-4,0.023405 0,0.035079 0.0013,0.023432 0.00405,0.04676 0.00585,0.070158 6.88e-4,0.00883 0.01266,0.08967 0.00585,0.1169302 -0.00106,0.00423 -0.0039,0.00779 -0.00585,0.011692 0,0.011692 0.00167,0.023503 0,0.035079 -0.00228,0.015909 -0.00869,0.030986 -0.011692,0.046772 -0.01229,0.064528 -0.00942,0.078846 -0.023386,0.1403165 -0.017846,0.078524 -0.018698,0.052567 -0.035079,0.13447 -0.00503,0.025135 -0.00647,0.050911 -0.011692,0.076005 -0.00994,0.047684 -0.025842,0.1184476 -0.040926,0.1637027 -0.00953,0.028596 -0.026236,0.063582 -0.029232,0.093544 -0.00251,0.025209 0.00159,0.050719 0,0.076005 -3.968e-4,0.00615 -0.00464,0.011496 -0.00585,0.017539 -0.00422,0.021109 -0.00585,0.042786 -0.00585,0.064312 0,0.011853 0.00486,0.023265 0.00585,0.035079 0.00665,0.079861 -0.010393,-0.015584 0.00585,0.081851 0.00265,0.015851 0.00942,0.030863 0.011692,0.046772 0.00518,0.036285 -8.996e-4,0.089775 -0.00585,0.122777 -0.00973,0.064875 -0.073862,0.1966386 -0.1169305,0.2397072 -0.022749,0.022749 -0.053062,0.041369 -0.076005,0.064312 -0.00689,0.00689 -0.010649,0.016497 -0.017539,0.023387 -0.017648,0.017648 -0.039812,0.030192 -0.058465,0.046772 -0.017724,0.015753 -0.018828,0.022802 -0.040926,0.035079 -0.012123,0.00674 -0.049393,0.026249 -0.064312,0.029232 -0.040628,0.00813 -0.141376,0.017116 -0.1695491,0.00585 -0.01448,0.00324 -0.014671,-0.013181 -0.023386,-0.017539 -0.00174,-8.731e-4 -0.00447,0.00138 -0.00585,0 -0.00138,-0.00138 8.705e-4,-0.0041 0,-0.00585 -0.014294,-0.028589 -0.037492,-0.051885 -0.058465,-0.076005 -0.019893,-0.022879 -0.041212,-0.044677 -0.064312,-0.064312 -0.021416,-0.018203 -0.050284,-0.026898 -0.070158,-0.046772 -0.00138,-0.00138 0.00138,-0.00447 0,-0.00585 -0.00138,-0.00138 -0.00497,0.00175 -0.00585,0 -0.00359,-0.00719 -0.00331,-0.015764 -0.00585,-0.023386 -0.00527,-0.015796 -0.013158,-0.030708 -0.017539,-0.046772 -0.00154,-0.00564 0.00185,-0.011993 0,-0.017539 -0.00222,-0.00667 -0.00908,-0.011015 -0.011693,-0.017539 -0.00145,-0.00362 0,-0.00779 0,-0.011692 -0.00195,-0.00585 -0.00309,-0.012028 -0.00585,-0.017539 -0.00314,-0.00628 -0.00947,-0.010874 -0.011693,-0.017539 -0.00681,-0.020442 -0.00896,-0.1154375 -0.00585,-0.1403165 0.00831,-0.066503 0.00357,0.013671 0.017539,-0.070158 0.0032,-0.019222 -0.00162,-0.039044 0,-0.058465 0.00115,-0.013732 0.00479,-0.027186 0.00585,-0.040926 0.00333,-0.043264 -0.0043,-0.057523 -0.011693,-0.099391 -0.00479,-0.027141 -0.00716,-0.054666 -0.011693,-0.081851 -0.00128,-0.00769 0.00189,-0.015822 0,-0.023386 -0.00375,-0.014989 -0.00585,-0.018981 -0.00585,-0.035079 0,-0.043881 -0.00168,-0.091828 0.00585,-0.13447 9.578e-4,-0.00543 0.00923,-0.00676 0.011693,-0.011692 0.00277,-0.00554 0.00346,-0.037208 0.00585,-0.046772 0.00149,-0.00598 0.011878,-0.016275 0.00585,-0.017539 -0.028151,-0.00591 -0.057529,4.234e-4 -0.086293,6.35e-4"
         id="path15" />
      <path
         style="fill:#170920;fill-opacity:1;stroke-width:0.2"
         d="m 2.2625931,7.278921 c 0.011696,0.042874 0.027974,0.084754 0.03509,0.1286209 0.00905,0.055787 0,0.1130326 0,0.1695492 0,0.070694 0.00214,0.1412954 -0.011693,0.2104747 -0.00991,0.049558 0.00826,0.1072864 -0.00585,0.1637025 -0.00457,0.018267 0,0.053694 0,0.070158 0,0.037028 0,0.074056 0,0.111084 0,0.076005 0,0.1520095 0,0.2280142 0,0.035615 -0.00584,0.076037 0,0.111084 -0.00203,0.011896 0.00963,0.018941 0.011693,0.029232 0.00115,0.00573 -0.00115,0.011806 0,0.017539 8.546e-4,0.00427 0.00479,0.00747 0.00585,0.011692 0.012122,0.048487 0.017539,0.1018249 0.017539,0.1520094 0,0.040783 0.00731,0.1446734 0,0.1812423 -0.00464,0.023185 -0.011693,0.030864 -0.011693,0.052618 0,0.010935 -0.00601,0.04669 0.00585,0.052619 0.00934,0.00467 0.044142,0 0.052619,0 0.015591,0 0.031553,0.00338 0.046772,0 0.032317,-0.00718 0.063574,-0.028081 0.093544,-0.040926 0.043711,-0.018732 0.083592,-0.036883 0.1227769,-0.064312 0.066438,-0.046507 0.1228236,-0.070182 0.1929353,-0.1052375 0.034183,-0.017092 0.057139,-0.054177 0.087698,-0.076005 0.036054,-0.025752 0.066774,-0.046157 0.093544,-0.081851 0.012422,-0.016563 0.00153,-0.0061 0.00585,-0.023386 -0.00411,-0.010761 0.00985,-0.010761 0.011692,-0.017539 0.00684,-0.025085 0.013861,-0.050265 0.017539,-0.076005 0.010692,-0.074844 -0.00654,-0.1771229 -0.017539,-0.2514004 -0.016764,-0.1131504 -0.025778,-0.227906 -0.052619,-0.3390982 -0.00535,-0.022175 -0.017508,-0.042271 -0.023386,-0.064312 -0.00201,-0.00753 9.789e-4,-0.01565 0,-0.023387 -0.00101,-0.00797 -0.00485,-0.015412 -0.00585,-0.023386 -0.00193,-0.01547 0.00172,-0.031277 0,-0.046772 -0.00711,-0.064016 -0.00585,-0.1281726 -0.00585,-0.1929352 0,-0.054568 -0.00585,-0.1028811 -0.00585,-0.157856 0,-0.00681 0.01242,-0.034353 0.00585,-0.040926 -0.012594,-0.012594 -0.081922,-0.011692 -0.099391,-0.011692 -0.042743,0 -0.086502,-0.00116 -0.1286235,0.00585 -0.00608,0.00101 -0.011438,0.00497 -0.017539,0.00585 -0.011576,0.00164 -0.02462,-0.00523 -0.035079,0 -0.00246,0.00124 -0.00317,0.00518 -0.00585,0.00585 -0.018379,0.0046 -0.034272,-2.646e-4 -0.052619,0.00585 -0.023019,0.00767 -0.057319,0 -0.081851,0 -0.02681,0 0.00616,0.00124 -0.029233,-0.00585 -0.030555,-0.00611 -0.046532,0.00243 -0.081851,-0.011692 -0.00746,-0.00298 -0.016199,-0.00225 -0.023386,-0.00585 -0.00174,-8.731e-4 0.00138,-0.00447 0,-0.00585 -0.00276,-0.00276 -0.015508,-7.937e-4 -0.011693,0 0.014952,0.00314 0.030057,0.00548 0.045086,0.00823"
         id="path16" />
      <path
         style="fill:#170920;fill-opacity:1;stroke-width:0.2"
         d="m 2.4156957,9.0785155 c 0.00973,0.085917 -0.00117,-0.0053 0.016457,0.1180619 0.00198,0.013883 0.00282,0.052414 0.011693,0.070158 0.017589,0.035178 0.017437,0.02558 0.040926,0.058465 0.00551,0.00771 0.00813,0.016269 0.011693,0.023387 0.00846,0.016923 0.084716,0.073046 0.099391,0.081851 0.00836,0.00501 0.014671,0.013181 0.023386,0.017539 0.00174,8.731e-4 0.0039,0 0.00585,0 0.0039,0.00196 0.00807,0.00343 0.011693,0.00585 0.0178,0.011867 0.012774,0.017169 0.040926,0.029233 0.014004,0.006 0.051795,0 0.064312,0 0.056748,0 0.1225708,0.00101 0.1753954,-0.023387 0.018217,-0.00841 0.034177,-0.021328 0.052619,-0.029233 0.00913,-0.00391 0.020061,-0.00204 0.029233,-0.00585 0.020979,-0.00874 0.036904,-0.027892 0.058465,-0.035079 0.00555,-0.00185 0.012465,0.0029 0.017539,0 0.00259,-0.00148 0.047629,-0.040119 0.052619,-0.046772 0.032004,-0.042672 0.052592,-0.1080477 0.064312,-0.1578563 0.00599,-0.025461 0.00111,-0.1400238 0,-0.1578559 -0.00284,-0.045366 -0.00315,-0.00629 -0.017539,-0.035079 -0.00175,-0.00349 0.00138,-0.00804 0,-0.011695 -0.00459,-0.01224 -0.013695,-0.022585 -0.017539,-0.035079 -0.012726,-0.041358 -0.012174,-0.085686 -0.017539,-0.1286235 -4.763e-4,-0.00387 0.00175,-0.00821 0,-0.011692 -0.013835,-0.02767 -0.033296,-0.043277 -0.046772,-0.076005 -0.00332,-0.00806 -0.02018,-0.084491 -0.029232,-0.093544 -0.00138,-0.00138 -0.00447,0.00138 -0.00585,0 -0.00497,-0.00497 -0.00672,-0.01257 -0.011692,-0.017539 -0.050683,-0.050683 -0.1449213,-0.058465 -0.2104747,-0.058465 -0.01538,0 -0.059133,3.439e-4 -0.070158,0.00585 -0.00493,0.00246 -0.00657,0.00965 -0.011692,0.011692 -0.00543,0.00217 -0.011692,0 -0.017539,0 -0.017539,0.00779 -0.036241,0.013377 -0.052619,0.023387 -0.042664,0.026072 -0.096661,0.072019 -0.1286233,0.1110838 -0.00552,0.00674 -0.00663,0.016293 -0.011693,0.023386 -0.011214,0.0157 -0.02837,0.026278 -0.040926,0.040926 -0.01384,0.016148 -0.034314,0.062018 -0.040926,0.081852 -0.00508,0.015245 -0.00572,0.031851 -0.011693,0.046772 -0.00205,0.00512 -0.00886,0.00697 -0.011693,0.011692 -0.019127,0.031879 -0.01146,0.071556 -0.00585,0.1052375 0.00361,0.021638 0.017539,0.042192 0.017539,0.064312 0,0.00357 -0.00228,0.021109 0,0.023386 0.00138,0.00138 0.0073,0.0013 0.00585,0 C 2.4430901,9.097759 2.4289821,9.088639 2.4157011,9.078518"
         id="path17" />
      <path
         style="fill:#170920;fill-opacity:1;stroke-width:0.2"
         d="m 2.429611,9.7671301 c 0.014489,0.00665 0.030867,0.010181 0.043467,0.019947 0.023594,0.018285 0.060672,0.068836 0.081851,0.093545 0.018858,0.022 0.031281,0.024921 0.052619,0.040926 0.014864,0.01115 0.022947,0.028793 0.035079,0.040926 0.021279,0.021278 0.00411,-0.00622 0.01754,0.011692 0.01733,0.023106 0.032236,0.049775 0.052618,0.070158 0.00852,0.0085 0.037864,0.02032 0.040926,0.02339 0.00138,0.0014 -0.00138,0.0045 0,0.0058 0.0072,0.0072 0.098741,0.0398 0.111084,0.04093 0.013586,0.0012 0.027331,-0.0011 0.040925,0 0.0099,8.2e-4 0.019312,0.0053 0.029233,0.0058 0.1489205,0.0083 0.3116033,-0.0066 0.450182,-0.06431 0.049066,-0.02045 0.089964,-0.05404 0.1344699,-0.081851 0.017015,-0.010634 0.035924,-0.018103 0.052619,-0.029233 0.00688,-0.00459 0.010853,-0.012676 0.017539,-0.017539 0.01487,-0.010813 0.031475,-0.019034 0.046772,-0.029233 0.00811,-0.00541 0.014671,-0.013181 0.023386,-0.017539 0.00719,-0.00359 0.015999,-0.00268 0.023386,-0.00585 0.022775,-0.00976 0.039032,-0.033844 0.040926,-0.058465 C 3.7343705,9.6845365 3.6728736,9.7018405 3.6073041,9.6116821 3.5619058,9.5492595 3.5842006,9.557233 3.5020666,9.4713657 c -0.00908,-0.00949 -0.048159,-0.028003 -0.064312,-0.040926 -0.010761,-0.00861 -0.018645,-0.02041 -0.029232,-0.029232 -0.0054,-0.0045 -0.013041,-0.00629 -0.017539,-0.011692 -0.00558,-0.0067 -0.00663,-0.016293 -0.011692,-0.023386 -0.023773,-0.033283 -0.058613,-0.065866 -0.093544,-0.087698 -0.016155,-0.010096 -0.084207,-0.03245 -0.1052374,-0.035079 -0.00967,-0.00122 -0.019677,0.00191 -0.029232,0 -0.019952,-0.00399 -0.038806,-0.012298 -0.058465,-0.017539 -0.041697,-0.011118 -0.085845,-0.013975 -0.1286235,-0.017539 -0.026673,-0.00222 -0.049958,0.00769 -0.076005,0.011692 -0.042387,0.00652 -0.086585,0.00913 -0.1286235,0.017539 -0.042641,0.012184 -0.032505,0.01048 -0.070158,0.017539 -0.048245,0.00905 -0.094853,0.011046 -0.1403164,0.029232 -0.00512,0.00204 -0.00676,0.00923 -0.011693,0.011692 -0.00174,8.732e-4 -0.00447,-0.00138 -0.00585,0 -0.00972,0.00972 -0.020141,0.048267 -0.023386,0.058465 -0.00778,0.024445 -0.033026,0.094974 -0.040926,0.13447 -0.00467,0.023368 0,0.052083 0,0.076005 0,0.00519 -0.00265,0.023934 0,0.029233 0.015368,0.030736 0.00585,0.095471 0.00585,0.1344699 0,0.00343 0.00113,0.022542 0,0.023387 -0.012236,0.00913 -0.027691,0.012867 -0.041537,0.019299"
         id="path18" />
      <path
         style="fill:#170920;fill-opacity:1;stroke-width:0.2"
         d="m 2.7091745,9.8689291 c 0.014846,-8e-7 0.034945,-0.011332 0.044537,-1.8e-6 0.011332,0.013388 -0.00108,0.035113 0,0.052618 8.467e-4,0.013753 0.00314,0.027413 0.00585,0.040926 0.00241,0.012086 0.00486,0.024823 0.011692,0.035079 0.00108,0.00161 0.00447,-0.00138 0.00585,0 0.00568,0.00568 0.00286,0.015925 0.00585,0.023386 0.00671,0.01678 0.018272,0.03143 0.023387,0.04677 0.00124,0.0037 -9.525e-4,0.0079 0,0.01169 0.00526,0.02105 0.012277,0.04326 0.017539,0.06431 0.00143,0.0057 -0.00262,0.01231 0,0.01754 0.01338,0.02676 -0.00243,-0.02481 0.011692,0.01754 0.00225,0.0068 -0.00169,0.01658 0,0.02339 0.0031,0.01241 0.010348,0.03014 0.017539,0.04093 0.012925,0.01939 0.035885,0.04509 0.058465,0.05262 0.00762,0.0025 0.015925,0.0029 0.023386,0.0058 0.00817,0.0033 0.00821,0.01406 0.011692,0.01754 0.00276,0.0028 0.008,-0.0012 0.011692,0 0.021267,0.0071 0.033827,0.02333 0.052619,0.03508 0.01003,0.0063 0.023077,0.0052 0.029232,0.01754 0.007,0.01401 0.029563,0.03574 0.040926,0.05847 0.00228,0.0045 0.00314,0.01347 0.00585,0.01754 0.021026,0.03154 0.00183,-0.004 0.023386,0.01754 0.00414,0.0041 -0.00262,0.01231 0,0.01754 8.731e-4,0.0017 0.0039,0 0.00585,0 0.00196,0.002 0.00461,0.0034 0.00585,0.0058 0.00172,0.0035 0.00975,0.02145 0.011695,0.02339 0.00308,0.0031 0.00861,0.0028 0.011692,0.0058 0.00616,0.0062 0.00646,0.01642 0.011692,0.02339 0.015407,0.02054 0.038365,0.03754 0.058465,0.05262 0.00604,0.0045 0.010821,0.01418 0.017539,0.01754 0.00349,0.0017 0.00821,-0.0017 0.011692,0 0.00962,0.0048 0.00792,0.01858 0.017539,0.02339 0.042747,0.02137 0.080952,0.05211 0.122777,0.07601 0.00535,0.0031 0.012256,0.0027 0.017539,0.0058 0.011398,0.0068 0.018553,0.02122 0.029232,0.02923 0.019225,0.01442 0.068938,0.03386 0.081851,0.04677 0.00138,0.0014 -0.00138,0.0045 0,0.0058 0.00138,0.0014 0.00423,-0.0011 0.00585,0 0.016939,0.01129 0.029825,0.02963 0.046772,0.04093 0.01384,0.0092 0.014737,0.003 0.029232,0.01754 0.00308,0.0031 0.00276,0.0086 0.00585,0.01169 0.00308,0.0031 0.00821,0.0032 0.011692,0.0058 0.012962,0.0097 0.021614,0.0261 0.035079,0.03508 0.029535,0.01969 0.056152,0.03469 0.093544,0.04093 0.047647,0.0079 0.111946,-0.0073 0.1520095,-0.03508 0.016817,-0.01164 0.065421,-0.07035 0.076005,-0.08185 0.030803,-0.03348 0.061374,-0.06722 0.093544,-0.09939 0.00882,-0.0088 0.025286,-0.01155 0.029233,-0.02339 0.020082,-0.06024 0.014031,-0.131547 0.00585,-0.192935 -0.00729,-0.05465 -0.011758,-0.105429 -0.029233,-0.157856 -0.00718,-0.02153 -0.00212,-0.0195 -0.011692,-0.03508 -0.013316,-0.02164 -0.028585,-0.0421 -0.040925,-0.06431 -0.075368,-0.135663 -0.012404,-0.05351 -0.1052375,-0.169549 -0.011816,-0.01477 -0.028345,-0.01575 -0.040925,-0.02923 C 3.7955817,9.981707 3.7520991,9.8781723 3.6540757,9.822159 c -0.015013,-0.00858 -0.036462,-0.00383 -0.052618,-0.00585 -0.036502,-0.00456 -0.073659,-0.00959 -0.111084,-0.00585 -0.00613,6.085e-4 -0.011414,0.00516 -0.017539,0.00585 -0.021307,0.00235 -0.04309,-0.00303 -0.064312,0 -0.00432,6.085e-4 -0.00779,0.0039 -0.011695,0.00585 -0.011692,0 -0.023386,0 -0.035079,0 -0.028802,0 -0.059074,0.00286 -0.087698,0 -0.045156,-0.00452 -0.088536,-0.01587 -0.13447,-0.011692 -0.023371,0.00212 -0.046927,0.00254 -0.070158,0.00585 -0.0061,8.732e-4 -0.011409,0.00523 -0.017539,0.00585 -0.021331,0.00214 -0.04309,-0.00303 -0.064312,0 -0.012203,0.00175 -0.022879,0.00995 -0.035079,0.011692 -0.040091,0.00573 -0.082598,-0.00502 -0.122777,0 -0.00797,0.00101 -0.015401,0.00496 -0.023386,0.00585 -0.00968,0.00108 -0.019677,-0.0019 -0.029233,0 -0.020836,0.00417 -0.048275,0.021408 -0.066888,0.031203"
         id="path19" />
      <path
         style="fill:#170920;fill-opacity:1;stroke-width:0.2"
         d="m 11.049924,1.4850163 c 0.0058,-0.013642 0.02418,-0.054201 0.01754,-0.040926 -0.110135,0.220268 -0.01661,0.026751 -0.07016,0.1695491 -0.0046,0.012241 -0.01466,0.022327 -0.01754,0.035079 -0.01087,0.048129 -0.01397,0.097729 -0.02339,0.146163 -0.0073,0.037618 -0.04657,0.1552371 -0.05262,0.1753956 -0.0064,0.021283 -0.01051,0.043232 -0.01754,0.064312 -0.01186,0.035595 -0.04077,0.054942 -0.06431,0.081851 -0.01183,0.013522 -0.02511,0.025976 -0.03508,0.040926 -0.0073,0.010878 -0.01061,0.023993 -0.01754,0.035079 -0.0044,0.00701 -0.01384,0.010144 -0.01754,0.017539 -8.73e-4,0.00174 0.0014,0.00447 0,0.00585 -0.0014,0.00138 -0.0045,-0.00138 -0.0058,0 -0.0044,0.00436 -0.0021,0.012609 -0.0058,0.017539 -0.0033,0.00441 -0.0092,0.00676 -0.01169,0.011693 -0.0091,0.018199 -0.0089,0.040027 -0.01754,0.058465 -0.02211,0.047387 -0.04742,0.093224 -0.07016,0.1403165 -3.17e-4,6.8e-4 -0.01936,0.048594 -0.02339,0.052619 -0.0014,0.00138 -0.0041,-8.705e-4 -0.0058,0 -0.01169,0.00585 -0.02373,0.011054 -0.03508,0.017539 -0.0048,0.00273 -0.007,0.00886 -0.01169,0.011693 -0.02814,0.016885 -0.06455,0.014736 -0.09354,0.029233 -0.0022,0.00111 -0.03866,0.032365 -0.04092,0.035079 -0.0062,0.00749 -0.0099,0.017299 -0.01754,0.023386 -0.003,0.00243 -0.008,-0.00123 -0.01169,0 -0.0111,0.0037 -0.03531,0.017655 -0.04677,0.023386 -0.01672,0.00836 -0.07677,-0.011693 -0.09354,-0.011693 -0.0039,0 0.01169,0.0039 0.01169,0 0,-0.00551 -0.0092,-0.00676 -0.01169,-0.011693 -8.74e-4,-0.00174 0.0014,-0.00447 0,-0.00585 -0.0014,-0.00138 -0.0045,0.00138 -0.0058,0 -0.0028,-0.00276 0.0028,-0.00894 0,-0.011693 -0.0028,-0.00276 -0.0089,0.00276 -0.01169,0 -0.0014,-0.00138 0.0014,-0.00447 0,-0.00585 -0.0014,-0.00138 -0.0045,0.00138 -0.0058,0 -0.0457,-0.045702 0.01373,-0.00123 -0.04092,-0.046772 -0.0033,-0.00279 -0.0086,-0.00277 -0.0117,-0.00585 -0.0014,-0.00138 0.0014,-0.00447 0,-0.00585 -0.002,-0.00195 -0.01559,-0.0039 -0.01754,-0.00585 -0.0014,-0.00138 0.0014,-0.00447 0,-0.00585 -0.0014,-0.00138 -0.0045,0.00138 -0.0058,0 -0.0031,-0.00308 -0.0028,-0.00861 -0.0058,-0.011693 -0.01381,-0.013808 -0.03751,-0.028252 -0.04677,-0.046772 -0.0051,-0.010164 -0.01284,-0.018888 -0.01754,-0.029233 -0.0084,-0.018523 -0.01,-0.039574 -0.01754,-0.058465 -9.53e-4,-0.00235 -0.01012,-0.021809 -0.01169,-0.023386 -0.0014,-0.00138 -0.0045,0.00138 -0.0058,0 -0.0049,-0.00494 -0.01856,-0.042965 -0.02339,-0.052619 -0.0098,-0.019578 0.0014,-0.1447847 -0.0058,-0.1520095 -0.0014,-0.00138 -0.0039,0 -0.0058,0 -0.002,-0.00195 -0.0043,-0.00355 -0.0058,-0.00585 C 10.001384,2.118454 10.002284,2.089764 9.992227,2.069646 9.989767,2.064716 9.983847,2.062366 9.980535,2.057953 9.969938,2.043825 9.959948,2.027896 9.945456,2.017027 9.935031,2.009207 9.923705,2.004865 9.916223,1.993641 9.907943,1.981221 9.929309,1.9945697 9.910373,1.981948 9.901783,1.976218 9.893053,1.973508 9.886987,1.964408 9.876721,1.949008 9.863468,1.937933 9.851908,1.923482 9.832387,1.89908 9.827244,1.866114 9.799289,1.847477 9.788798,1.840487 9.759904,1.825631 9.752517,1.818244 9.748157,1.813884 9.744127,1.798161 9.740825,1.794858 9.730985,1.785018 9.719833,1.785208 9.711592,1.771472 9.708422,1.766192 9.708502,1.759445 9.705742,1.753932 9.697012,1.736471 9.675621,1.723367 9.664817,1.70716 9.655077,1.692544 9.648937,1.669552 9.64143,1.654541 9.63698,1.645631 9.597034,1.606033 9.588811,1.601922 c -0.00175,-8.705e-4 -0.00447,0.00138 -0.00585,0 -0.00292,-0.00292 -0.00292,-0.00877 -0.00585,-0.011693 -0.00276,-0.00276 -0.00821,0.00174 -0.011692,0 -0.00493,-0.00247 -0.00711,-0.00864 -0.011692,-0.011693 -0.00873,-0.00582 -0.0205,-0.00587 -0.029233,-0.011693 -0.00161,-0.00108 0.00138,-0.00447 0,-0.00585 C 9.517994,1.554493 9.489152,1.549037 9.483568,1.543453 9.475778,1.535653 9.495969,1.537843 9.477718,1.53176 9.471198,1.52959 9.453601,1.5310297 9.448485,1.52591 c -0.00138,-0.00138 8.731e-4,-0.0041 0,-0.00585 C 9.443435,1.509954 9.423514,1.490034 9.413406,1.484981 9.410086,1.483321 9.385455,1.468723 9.384173,1.467441 c -0.00138,-0.00138 0.00138,-0.00447 0,-0.00585 -0.00138,-0.00138 -0.00447,0.00138 -0.00585,0 C 9.371693,1.454961 9.370473,1.44305 9.360784,1.438205 9.348296,1.431965 9.337887,1.424727 9.325705,1.420665 9.319185,1.418495 9.301588,1.4199347 9.296472,1.414815 c -0.00138,-0.00138 0.00138,-0.00447 0,-0.00585 -0.00292,-0.00292 -0.014616,0.00292 -0.017539,0 C 9.277663,1.407695 9.26351,1.380236 9.261394,1.373886 c -9.79e-4,-0.00296 -0.00257,-0.038348 0,-0.040926 0.00138,-0.00138 0.00447,0.00138 0.00585,0 0.00138,-0.00138 -0.00138,-0.00447 0,-0.00585 0.00505,-0.00504 0.039507,-0.036082 0.046772,-0.040926 0.00161,-0.00108 0.00447,0.00138 0.00585,0 0.00138,-0.00138 -0.00138,-0.00447 0,-0.00585 0.00276,-0.00276 0.00821,0.00174 0.011695,0 0.00745,-0.00373 0.015658,-0.014963 0.023386,-0.017539 0.0037,-0.00123 0.008,0.00123 0.011692,0 0.00262,-8.705e-4 0.00355,-0.00432 0.00585,-0.00585 C 9.385435,1.248315 9.410638,1.241817 9.425108,1.239405 9.476354,1.230865 9.458427,1.238235 9.495266,1.227712 9.54795,1.21266 9.6001828,1.195057 9.653122,1.18094 9.675167,1.17506 9.695731,1.17467 9.717434,1.169247 c 0.042694,-0.010674 0.1654226,0.00774 0.2046283,0.01754 0.016878,0.00422 0.042243,-0.00649 0.058465,0 0.00512,0.00205 0.00657,0.00965 0.011692,0.011693 0.012666,0.00507 0.027367,-0.00151 0.040926,0 0.0099,0.0011 0.01949,0.0039 0.02923,0.00585 0.01949,0 0.039,-0.00102 0.05846,0 0.0262,-0.00945 0.05117,0.00893 0.07601,0.011693 0.05678,0.00631 0.118013,0 0.175396,0 0.0746,0 0.147523,0.00585 0.222168,0.00585 0.03763,0 0.115633,-0.00728 0.152009,0 0.0043,8.546e-4 0.0078,0.0039 0.01169,0.00585 0.0078,0.00195 0.01543,0.00471 0.02339,0.00585 0.02825,0.00404 0.0072,-0.0061 0.03508,0.00585 0.008,0.00343 0.01512,0.00894 0.02339,0.011693 0.04372,0.014573 0.09211,0.00927 0.13447,0.023386 0.04636,0.015452 0.05699,0.071567 0.07016,0.1110839 0.01412,0.042349 -0.0017,-0.00922 0.01169,0.01754 0.008,0.016088 -0.0039,0.070105 -0.0058,0.081851"
         id="path21" />
    </g>
    <g
       id="letra"
       style="fill:#ea0e16;fill-opacity:1">
      <text
         xml:space="preserve"
         style="font-style:normal;font-variant:normal;font-weight:normal;font-stretch:normal;font-size:15.3519px;font-family:'Imprint MT Shadow';-inkscape-font-specification:'Imprint MT Shadow, Normal';font-variant-ligatures:normal;font-variant-caps:normal;font-variant-numeric:normal;font-variant-east-asian:normal;fill:#ea0e16;stroke-width:0.0264273;fill-opacity:1"
         x="0.10204652"
         y="11.537263"
         id="text1"><tspan
           sodipodi:role="line"
           id="tspan1"
           style="font-style:normal;font-variant:normal;font-weight:normal;font-stretch:normal;font-size:15.3519px;font-family:'Imprint MT Shadow';-inkscape-font-specification:'Imprint MT Shadow, Normal';font-variant-ligatures:normal;font-variant-caps:normal;font-variant-numeric:normal;font-variant-east-asian:normal;stroke-width:0.0264273;fill:#ea0e16;fill-opacity:1"
           x="0.10204652"
           y="11.537263">U</tspan></text>
      <path
         style="fill:#ea0e16;fill-opacity:1;stroke-width:0.0944882"
         d="M 21.125,44.166475 C 16.6635,43.618399 13.500779,42.22071 11.14683,39.75686 9.7031843,38.245812 8.8253292,36.569445 8.4267261,34.5625 8.3204756,34.027534 8.2558671,30.10316 8.2013836,20.875 L 8.125,7.9375 7.8376442,7.3140571 C 7.163482,5.8514046 6.5785076,5.6110441 2.65625,5.1850702 L 1.9375,5.1070109 V 4.4285055 3.75 h 9.5 9.5 v 0.6775507 0.6775508 l -0.84375,0.080477 c -1.058999,0.1010072 -2.618135,0.3787547 -3.038296,0.541248 -0.502212,0.1942252 -1.10618,0.7600536 -1.376158,1.2892551 -0.47332,0.9277836 -0.50664,1.9822359 -0.461622,14.6089184 0.04274,11.988601 0.04782,12.20382 0.310985,13.1875 1.028247,3.843435 3.668332,6.162014 7.993041,7.019659 1.633039,0.323852 4.96349,0.297552 6.485725,-0.05122 4.953522,-1.134932 7.892011,-4.295795 8.622166,-9.274657 0.175229,-1.194876 0.195076,-2.551819 0.150434,-10.285131 C 38.72616,12.890351 38.695777,12.331023 38.119567,10.0625 37.400042,7.2297482 35.655511,5.6764396 32.709809,5.245721 L 31.6875,5.0962397 V 4.4231199 3.75 h 7.1875 7.1875 v 0.6851185 c 0,0.645301 -0.01998,0.6896177 -0.34375,0.7625351 -2.049989,0.4616823 -3.016633,1.0696865 -3.920666,2.466041 -1.385558,2.1401064 -1.603719,4.4638734 -1.609982,17.1488054 -0.0035,7.188072 -0.02421,7.973132 -0.236856,9 -1.173484,5.666711 -5.517024,9.287204 -12.298561,10.251281 -1.164525,0.165551 -5.46524,0.23321 -6.527685,0.102694 z M 20.409836,43.43067 C 20.371706,43.39254 19.504516,42.95079 18.482752,42.449009 14.471781,40.479247 12.440901,38.325562 11.40411,34.942329 11.137242,34.071489 11.133777,33.927764 11.064982,20.875 11.000833,8.7038951 10.978602,7.6448082 10.776536,7.1335839 10.236505,5.7673124 9.2627177,5.1235537 7.75,5.1327776 6.8904966,5.1380185 6.8805345,5.1418107 7.1875,5.3469069 7.8574341,5.7945169 8.4120024,6.4695844 8.6995482,7.1875 l 0.3003965,0.75 0.065122,13.1875 0.065122,13.1875 0.3483159,1.120346 c 0.9087244,2.922879 2.5633414,4.757643 5.6464964,6.261255 1.404767,0.685086 2.672081,1.149975 4.241799,1.556016 0.98113,0.253792 1.144567,0.282083 1.043036,0.180553 z M 39.933887,6.6306287 C 40.15715,6.2827061 40.572734,5.8027085 40.857409,5.5639676 L 41.375,5.129893 38.40625,5.1274465 c -1.632813,-0.00135 -2.96875,0.019815 -2.96875,0.047023 0,0.027208 0.282126,0.2305089 0.626946,0.4517794 1.171923,0.7520213 1.999521,1.9178526 2.44205,3.4400984 L 38.722541,9.8095166 39.12525,8.5363662 C 39.34674,7.8361334 39.710626,6.9785517 39.933887,6.6306287 Z M 82.750001,43.652415 41.763495,5.6126601"
         id="path10"
         transform="scale(0.26458333)" />
    </g>
  </g>
</svg>
